<?xml version="1.0" standalone="no"?>
<!DOCTYPE svg PUBLIC "-//W3C//DTD SVG 20010904//EN"
 "http://www.w3.org/TR/2001/REC-SVG-20010904/DTD/svg10.dtd">
<svg version="1.0" xmlns="http://www.w3.org/2000/svg"
 width="346.000000pt" height="346.000000pt" viewBox="0 0 346.000000 346.000000"
 preserveAspectRatio="xMidYMid meet">

<g transform="translate(0.000000,346.000000) scale(0.100000,-0.100000)"
fill="#000000" stroke="none">
<path d="M1230 1730 l0 -1700 500 0 500 0 0 800 0 800 -100 0 -100 0 0 -700 0
-700 -300 0 -300 0 0 800 0 800 400 0 400 0 0 800 0 800 -500 0 -500 0 0
-1700z m800 900 l0 -600 -300 0 -300 0 0 600 0 600 300 0 300 0 0 -600z"/>
<path d="M2430 1930 l0 -1500 100 0 100 0 0 1500 0 1500 -100 0 -100 0 0
-1500z"/>
<path d="M2830 1930 l0 -1500 100 0 100 0 0 1500 0 1500 -100 0 -100 0 0
-1500z"/>
<path d="M3230 1930 l0 -1500 100 0 100 0 0 1500 0 1500 -100 0 -100 0 0
-1500z"/>
<path d="M30 2430 l0 -600 100 0 100 0 0 600 0 600 -100 0 -100 0 0 -600z"/>
<path d="M830 2430 l0 -600 100 0 100 0 0 600 0 600 -100 0 -100 0 0 -600z"/>
<path d="M30 830 l0 -800 300 0 300 0 0 800 0 800 -100 0 -100 0 0 -700 0
-700 -100 0 -100 0 0 700 0 700 -100 0 -100 0 0 -800z"/>
<path d="M830 830 l0 -800 100 0 100 0 0 800 0 800 -100 0 -100 0 0 -800z"/>
</g>
</svg>
