<?xml version="1.0" standalone="no"?>
<!DOCTYPE svg PUBLIC "-//W3C//DTD SVG 20010904//EN"
 "http://www.w3.org/TR/2001/REC-SVG-20010904/DTD/svg10.dtd">
<svg version="1.0" xmlns="http://www.w3.org/2000/svg"
 width="845.000000pt" height="921.000000pt" viewBox="0 0 845.000000 921.000000"
 preserveAspectRatio="xMidYMid meet">

<g transform="translate(0.000000,921.000000) scale(0.100000,-0.100000)"
fill="#000000" stroke="none">
<path d="M4115 8386 c-29 -15 -61 -41 -75 -63 l-25 -37 -3 -698 -2 -698 245 0
246 0 -3 688 c-3 675 -3 688 -24 727 -11 22 -40 53 -63 70 -39 27 -50 30 -144
33 -93 3 -106 1 -152 -22z"/>
<path d="M4010 2384 l0 -1535 47 -21 c67 -30 252 -37 343 -14 112 28 100 -159
100 1582 l0 1524 -245 0 -245 0 0 -1536z"/>
</g>
</svg>
